<?xml version="1.0" encoding="utf-8"?>
<!-- Generator: Adobe Illustrator 22.1.0, SVG Export Plug-In . SVG Version: 6.00 Build 0)  -->
<svg version="1.1" id="Layer_1" xmlns="http://www.w3.org/2000/svg" xmlns:xlink="http://www.w3.org/1999/xlink" x="0px" y="0px"
	 viewBox="0 0 957.8 143.7" style="enable-background:new 0 0 957.8 143.7;" xml:space="preserve">
<style type="text/css">
	.st0{fill:#EE3124;}
	.st1{fill:#EE3124;enable-background:new    ;}
</style>
<g>
	<g>
		<g>
			<path class="st0" d="M910.4,4.7l-32.8,52.7h19.3l32.7-52.7L910.4,4.7z"/>
		</g>
		<g>
			<path class="st0" d="M938.5,4.7l-32.8,52.7H925l32.7-52.7L938.5,4.7z"/>
		</g>
	</g>
	<g>
		<g>
			<g>
				<path class="st0" d="M681.4,37.2H662v107.5h20.2V37.2H681.4z"/>
			</g>
		</g>
		<g>
			<path class="st0" d="M681.4,0H662v20.1h20.1V0H681.4z"/>
		</g>
		<g>
			<path class="st1" d="M390.3,144.8V1.7h-18.7v37h-38.5c-19,0-34.5,15.5-34.5,34.5v37.2c0,18.7,15,34,33.5,34.5H390.3z
				 M317.4,110.3V73.1c0-8.7,7.1-15.7,15.8-15.7h38.5v68.7h-38.5C324.5,126.1,317.4,119,317.4,110.3z"/>
		</g>
		<path class="st0" d="M754,93.8c-1.4-2.2-4.8-7.7-9.6-9.4c4.9-1.6,8.7-8,8.7-8c4.1-5.3,19.8-31.2,23.7-37.7h-23.1
			c-10.1,16.5-17.4,27.8-19,29.8c-3.6,4-5.6,5.8-10.5,5.8c0,0-7.8,0-9.1,0c0-1.5,0-74.1,0-74.1h-19.6v144.6h19.6c0,0,0-48.9,0-50.3
			c1.3,0,9.1,0,9.1,0c4.8,0,6.9,1.8,10.5,5.8c1.9,2.3,13,20.1,27.6,44.1l0.2,0.4h23L754,93.8z"/>
		<path class="st0" d="M608.5,37.4c-12,0-23.3,5.2-31.2,14.3c-7.9-9.1-19.2-14.3-31.2-14.3c-22.8,0-41.4,18.6-41.4,41.4v47.4h-68.2
			c-8.7,0-15.8-7.1-15.8-15.8v-2.7h47.1c15.4,0,27.9-12.6,28-27.9v-7h0c-0.2-18.8-15.6-34.1-34.5-34.1h-24.8h-0.3v0
			C417.3,38.8,402,54.2,402,73.1v37.2c0,19,15.5,34.5,34.5,34.5h88.4V78.7c0-11.7,9.5-21.2,21.2-21.2c11.4,0,20.7,8.9,21.1,20.3
			c0,0,0,0.3,0,0.3l0,0.6v62.6l0.1,3.5h20.2V78.7l0-0.6l0-0.3c0.5-11.3,9.7-20.2,21.1-20.2c11.7,0,21.2,9.5,21.2,21.2v66.1h20.2
			V78.7C649.9,55.9,631.4,37.4,608.5,37.4z M420.7,73.1c0-8.7,7.1-15.7,15.8-15.7h2.7h22.1c8.7,0,15.8,7.1,15.8,15.8h0v6.5
			c0,5.1-4.2,9.3-9.3,9.2h-47.1V73.1z"/>
		<path class="st0" d="M99.8,144.6C99.8,144.6,99.8,144.6,99.8,144.6h-0.2H99.8z M165.4,93.8c-1.4-2.2-4.8-7.7-9.6-9.4
			c4.9-1.6,8.7-8,8.7-8c4.1-5.3,19.8-31.2,23.7-37.7h-23.1c-10.1,16.5-17.4,27.8-19,29.8c-3.6,4-5.6,5.8-10.5,5.8c0,0-7.8,0-9.1,0
			c0-1.5,0-74.1,0-74.1h-19.6v125.8l-7.1,0c-4.8,0-8.6-3.9-8.6-8.6V73.1c0-19-15.5-34.5-34.5-34.5H8.6v18.7h48.2
			c8.7,0,15.8,7.1,15.8,15.8c0,0,0,2.2,0,2.6c-11.8,0-38.2,0-38.2,0c-19,0-34.5,15.5-34.5,34.5c0,19,15.5,34.5,34.5,34.5h22.5
			c8.8,0,16.9-3.3,23-8.8c5,5.4,12.1,8.8,20,8.8l26.7,0c0,0,0-48.7,0-50.2c1.3,0,9.1,0,9.1,0c4.8,0,6.9,1.8,10.5,5.8
			c1.9,2.3,13,20.1,27.6,44.1l0.1,0.2h23L165.4,93.8z M72.5,110.2c0,8.7-7.1,15.7-15.8,15.7H34.3c-8.7,0-15.8-7.1-15.8-15.8
			c0-8.7,7.1-15.8,15.8-15.8c0,0,26.4,0,38.2,0C72.5,102.1,72.5,110.2,72.5,110.2z"/>
		<path class="st0" d="M290.6,144.6C290.5,144.6,290.5,144.6,290.6,144.6h-0.2H290.6z M296.8,125.9l-6.2,0c-4.8,0-8.6-3.9-8.6-8.6
			V73.1c0-19-15.5-34.5-34.5-34.5h-48.2v18.7h48.2c8.7,0,15.8,7.1,15.8,15.8c0,0,0,2.2,0,2.6c-11.8,0-38.2,0-38.2,0
			c-19,0-34.5,15.5-34.5,34.5c0,19,15.5,34.5,34.5,34.5h22.5c8.8,0,16.9-3.3,23-8.8c5,5.4,12.1,8.8,20,8.8l6.3,0V125.9z
			 M263.2,110.2c0,8.7-7.1,15.7-15.8,15.7H225c-8.7,0-15.8-7.1-15.8-15.8c0-8.7,7.1-15.8,15.8-15.8c0,0,26.4,0,38.2,0
			C263.2,102.1,263.2,110.2,263.2,110.2z"/>
		<path class="st0" d="M879.6,144.6C879.6,144.6,879.5,144.6,879.6,144.6h-0.2H879.6z M885.8,125.9l-6.2,0c-4.8,0-8.6-3.9-8.6-8.6
			V73.1c0-19-15.5-34.5-34.5-34.5h-48.2v18.7h48.2c8.7,0,15.8,7.1,15.8,15.8c0,0,0,2.2,0,2.6c-11.8,0-38.2,0-38.2,0
			c-19,0-34.5,15.5-34.5,34.5c0,19,15.5,34.5,34.5,34.5h22.4c8.8,0,16.9-3.3,23-8.8c5,5.4,12.1,8.8,20,8.8l6.3,0V125.9z
			 M852.2,110.2c0,8.7-7.1,15.7-15.8,15.7H814c-8.7,0-15.8-7.1-15.8-15.8c0-8.7,7.1-15.8,15.8-15.8c0,0,26.4,0,38.2,0
			C852.2,102.1,852.2,110.2,852.2,110.2z"/>
	</g>
</g>
</svg>
