<svg width="127" height="25" viewBox="0 0 127 25" fill="none" xmlns="http://www.w3.org/2000/svg">
<path d="M68.9439 3.26575C67.403 1.18394 64.9725 0.109985 62.5102 0.109985C60.2067 0.109985 57.9351 1.03523 56.3942 2.90226C54.7738 4.81885 54.1543 6.86761 54.1543 10.2216V24.183H61.2552V10.0729C61.2552 8.75116 61.4935 7.79286 62.5737 7.77634C63.6539 7.77634 63.8605 8.6355 63.8605 10.0729V24.1995H70.8978V10.2216C70.8978 7.14849 70.3259 5.13277 68.9439 3.26575Z" fill="#FFF200"/>
<path d="M56.3146 2.83618C54.6784 4.76929 54.043 6.83458 54.043 10.2217V24.2821H61.3345V10.073C61.3345 8.51986 61.684 7.89201 62.5577 7.87549C62.9072 7.87549 63.1614 7.9581 63.3361 8.15637C63.7015 8.53638 63.7491 9.34597 63.7491 10.073V24.2987H70.9771V10.2217C70.9771 7.11546 70.4052 5.08321 68.9914 3.19967C67.514 1.20047 65.0835 0.0108643 62.4942 0.0108643C60.0636 0.0108643 57.8079 1.03525 56.3146 2.83618ZM54.2495 10.2217C54.2495 6.88415 54.869 4.8519 56.4735 2.96836C57.9191 1.21699 60.1272 0.209132 62.5259 0.209132C65.0518 0.209132 67.4346 1.38222 68.8802 3.33185C70.2623 5.18235 70.8183 7.18155 70.8183 10.2382C70.8183 10.2382 70.8183 23.9021 70.8183 24.1004C70.6276 24.1004 64.1463 24.1004 63.9715 24.1004C63.9715 23.9021 63.9715 10.073 63.9715 10.073C63.9715 9.26336 63.908 8.43725 63.495 8.00767C63.2726 7.77635 62.9866 7.67722 62.5895 7.67722C61.3504 7.67722 61.1756 8.88335 61.1756 10.073C61.1756 10.073 61.1756 23.9021 61.1756 24.1004C60.985 24.1004 54.4401 24.1004 54.2654 24.1004C54.2495 23.9021 54.2495 10.2217 54.2495 10.2217Z" fill="black"/>
<path d="M62.526 1.84485C60.715 1.84485 58.8564 2.63792 57.6332 4.12493C56.2988 5.71107 55.8699 7.69375 55.8699 10.6017V22.5638H59.5712V9.62686C59.5712 7.46244 60.8103 6.00847 62.5895 6.00847C64.4005 6.00847 65.5125 7.34678 65.5125 9.62686V22.5638H69.2138C69.2138 22.5638 69.2138 21.0768 69.2138 10.6017C69.2138 7.92506 68.8802 5.97543 67.7365 4.42233C66.4974 2.72053 64.4958 1.84485 62.526 1.84485Z" fill="black"/>
<path d="M50.707 3.26575C49.1661 1.18394 46.7356 0.109985 44.2733 0.109985C41.9699 0.109985 39.6983 1.03523 38.1574 2.90226C36.537 4.81885 35.9175 6.86761 35.9175 10.2216V24.183H43.0184V10.0729C43.0184 8.75116 43.2567 7.79286 44.3369 7.77634C45.4171 7.77634 45.6236 8.6355 45.6236 10.0729V24.1995H52.661V10.2216C52.661 7.14849 52.105 5.13277 50.707 3.26575Z" fill="#FFF200"/>
<path d="M38.0939 2.83618C36.4577 4.76929 35.8223 6.83458 35.8223 10.2217V24.2821H43.1138V10.073C43.1138 8.51986 43.4633 7.89201 44.337 7.87549C44.6865 7.87549 44.9406 7.9581 45.1154 8.15637C45.4808 8.53638 45.5284 9.34597 45.5284 10.073V24.2987H52.7564V10.2217C52.7564 7.11546 52.1845 5.08321 50.7707 3.19967C49.2933 1.20047 46.8628 0.0108643 44.2734 0.0108643C41.8271 0.0108643 39.5713 1.03525 38.0939 2.83618ZM36.0129 10.2217C36.0129 6.88415 36.6324 4.8519 38.2369 2.96836C39.6825 1.21699 41.8906 0.209132 44.2893 0.209132C46.8151 0.209132 49.198 1.38222 50.6436 3.33185C52.0256 5.18235 52.5816 7.18155 52.5816 10.2382C52.5816 10.2382 52.5816 23.9021 52.5816 24.1004C52.391 24.1004 45.9097 24.1004 45.7349 24.1004C45.7349 23.9021 45.7349 10.073 45.7349 10.073C45.7349 9.26336 45.6714 8.43725 45.2584 8.00767C45.036 7.77635 44.75 7.67722 44.3529 7.67722C43.1138 7.67722 42.939 8.88335 42.939 10.073C42.939 10.073 42.939 23.9021 42.939 24.1004C42.7484 24.1004 36.2035 24.1004 36.0288 24.1004C36.0129 23.9021 36.0129 10.2217 36.0129 10.2217Z" fill="black"/>
<path d="M44.2892 1.84485C42.4782 1.84485 40.6196 2.63792 39.3964 4.12493C38.062 5.71107 37.6331 7.69375 37.6331 10.6017C37.6331 10.6017 37.6331 21.209 37.6331 22.5638C38.5068 22.5638 40.4607 22.5638 41.3344 22.5638C41.3344 21.1925 41.3344 9.62686 41.3344 9.62686C41.3344 7.46244 42.5735 6.00847 44.3527 6.00847C46.1637 6.00847 47.2757 7.34678 47.2757 9.62686C47.2757 9.62686 47.2757 21.1925 47.2757 22.5638C48.1494 22.5638 50.1033 22.5638 50.977 22.5638C50.977 21.209 50.977 21.0768 50.977 10.6017C50.977 7.92506 50.6434 5.97543 49.4997 4.42233C48.2606 2.72053 46.259 1.84485 44.2892 1.84485Z" fill="black"/>
<path d="M32.5498 21.5394C31.0089 23.6212 28.5784 24.6952 26.1161 24.6952C23.8127 24.6952 21.541 23.7699 20.0001 21.9029C18.3798 19.9863 17.7603 17.9375 17.7603 14.567V0.572571H24.8612V14.7157C24.8612 16.0375 25.0994 17.0123 26.1797 17.0123C27.2599 17.0123 27.4664 16.1531 27.4664 14.7157V0.572571H34.5038V14.567C34.5038 17.6401 33.9319 19.6558 32.5498 21.5394Z" fill="#FFF200"/>
<path d="M27.3712 0.473511V14.7157C27.3712 15.4593 27.3235 16.2523 26.9581 16.6323C26.7834 16.8141 26.5292 16.9132 26.1798 16.9132C25.306 16.9132 24.9566 16.2688 24.9566 14.7157V0.473511H17.665V14.567C17.665 17.9541 18.3005 20.0359 19.9367 21.969C21.4299 23.77 23.6857 24.7944 26.1321 24.7944C28.7215 24.7944 31.152 23.6048 32.6293 21.589C34.0432 19.689 34.615 17.6567 34.615 14.5505V0.473511H27.3712ZM34.4085 0.671779C34.4085 0.870046 34.4085 14.567 34.4085 14.567C34.4085 17.6237 33.8525 19.6229 32.4705 21.4734C31.0249 23.423 28.642 24.5961 26.1162 24.5961C23.7334 24.5961 21.5253 23.5882 20.0638 21.8369C18.4593 19.9368 17.8398 17.9046 17.8398 14.567C17.8398 14.567 17.8398 0.870046 17.8398 0.671779C18.0304 0.671779 24.5753 0.671779 24.75 0.671779C24.75 0.870046 24.75 14.7157 24.75 14.7157C24.75 15.8888 24.9248 17.1115 26.1639 17.1115C26.561 17.1115 26.8628 17.0124 27.0693 16.781C27.4824 16.3515 27.5459 15.5419 27.5459 14.7157C27.5459 14.7157 27.5459 0.870046 27.5459 0.671779C27.7365 0.671779 34.2338 0.671779 34.4085 0.671779Z" fill="black"/>
<path d="M26.1322 22.9603C24.3212 22.9603 22.4626 22.1673 21.2394 20.6637C19.905 19.0776 19.4761 17.0949 19.4761 14.187V2.20831H23.1774V15.1618C23.1774 17.3262 24.4165 18.7802 26.1957 18.7802C28.0067 18.7802 29.1187 17.4254 29.1187 15.1618V2.20831H32.82C32.82 2.20831 32.82 3.69532 32.82 14.187C32.82 16.8636 32.4864 18.8298 31.3427 20.3829C30.1036 22.0681 28.102 22.9603 26.1322 22.9603Z" fill="black"/>
<path d="M96.2513 17.3097V24.183H89.4045V0.556096H98.6818C98.6818 0.556096 101.128 0.539574 103.05 2.4066C105.163 4.45536 106.355 8.56942 104.321 12.3861C104.321 12.3861 103.781 13.2452 103.527 13.5592C103.527 13.5592 103.4 13.6913 103.575 13.84C104.671 14.7818 105.274 16.1862 105.274 17.855V24.183H98.2846V18.7141C98.2846 18.7141 98.3164 17.3263 97.1091 17.3263L96.2513 17.3097ZM96.2354 7.99114V10.4364H97.2362C97.2362 10.4364 98.3799 10.3869 98.3799 9.19727C98.3799 8.15636 97.4903 7.97462 97.1567 7.97462C96.8231 7.99114 96.2354 7.99114 96.2354 7.99114Z" fill="#FFF200"/>
<path d="M98.6819 0.45697H89.3093V24.2822H96.3467C96.3467 24.2822 96.3467 17.6071 96.3467 17.4089C96.5055 17.4089 97.0774 17.4254 97.0774 17.4254C97.3951 17.4254 97.6334 17.5245 97.824 17.7228C98.1576 18.0863 98.1735 18.648 98.1735 18.7141V24.2987H105.354V17.8715C105.354 16.1697 104.75 14.7488 103.622 13.774C103.606 13.7574 103.575 13.7244 103.575 13.6913C103.575 13.6583 103.591 13.6418 103.591 13.6418C103.845 13.3279 104.369 12.4852 104.401 12.4522C106.434 8.58595 105.29 4.43885 103.098 2.32399C101.192 0.45697 98.6978 0.45697 98.6819 0.45697ZM98.6819 0.655238C98.7136 0.655238 101.128 0.67176 102.971 2.47269C104.321 3.77796 105.259 5.89281 105.259 8.20594C105.259 9.54424 104.941 10.9486 104.21 12.32C104.21 12.32 103.67 13.1792 103.432 13.4766C103.432 13.4766 103.368 13.5592 103.368 13.6583C103.368 13.6583 103.368 13.6583 103.368 13.6748C103.368 13.7244 103.4 13.8235 103.495 13.9061C104.575 14.8479 105.147 16.2027 105.147 17.855C105.147 17.855 105.147 23.9021 105.147 24.0839C104.957 24.0839 98.5389 24.0839 98.3483 24.0839C98.3483 23.8856 98.3483 18.6976 98.3483 18.6976C98.3483 18.5985 98.3324 17.9871 97.9511 17.5741C97.7287 17.3428 97.4428 17.2271 97.0774 17.2271L96.1402 17.2106C96.1402 17.2106 96.1402 23.8856 96.1402 24.0839C95.9495 24.0839 89.6588 24.0839 89.4841 24.0839C89.4841 23.8856 89.4841 0.836984 89.4841 0.655238C89.6906 0.655238 98.6819 0.655238 98.6819 0.655238Z" fill="black"/>
<path d="M96.1401 7.89201V10.5356H97.2362C97.2521 10.5356 98.4753 10.4695 98.4753 9.19727C98.4753 8.15637 97.6175 7.87549 97.1568 7.87549L96.1401 7.89201ZM97.1568 8.09028C97.2045 8.09028 98.2847 8.1068 98.2847 9.2138C98.2847 10.2877 97.268 10.3538 97.2362 10.3538C97.2362 10.3538 96.4896 10.3538 96.3466 10.3538C96.3466 10.1721 96.3466 8.27202 96.3466 8.1068C96.4896 8.09028 97.1568 8.09028 97.1568 8.09028Z" fill="black"/>
<path d="M101.716 14.1209C101.716 14.1209 101.239 13.8896 101.271 13.6913C101.287 13.5426 101.573 13.3444 101.605 13.3113C101.7 13.2122 103.876 11.2791 103.717 8.02418C103.527 4.22405 100.779 2.29094 98.3958 2.27441H91.0725V22.5803H94.7421V6.27282H96.8867C98.0145 6.27282 100.08 6.48761 100.08 9.16422C100.08 10.8825 99.0153 12.1382 97.6174 12.1713C97.5697 12.1713 96.1559 12.1713 96.1559 12.1713V15.641C96.1559 15.641 97.6809 15.641 97.7445 15.6575C99.4919 16.0045 100 17.5741 100 18.5819V22.5803H103.686L103.702 17.8219C103.654 16.2853 102.891 14.7488 101.716 14.1209Z" fill="black"/>
<path d="M0.0952148 0.523071H9.64251C11.0087 0.589161 12.3272 1.11787 13.0579 1.74572C13.7887 2.37357 15.2184 3.61274 15.5837 6.42154C15.9332 9.21381 14.7259 11.0478 14.7259 11.0478C15.822 12.3861 16.7434 14.3027 16.7434 16.401C16.7434 18.4994 16.1239 20.8786 14.3447 22.4647C12.6608 23.9682 10.691 24.183 10.3097 24.15L0.0952148 24.1665V0.523071ZM7.05314 7.97464V9.51121H8.03805C8.03805 9.51121 8.76879 9.5773 8.78468 8.73466C8.80057 8.0242 8.37165 7.97464 8.02217 7.97464C7.70445 7.95811 7.05314 7.97464 7.05314 7.97464ZM7.05314 14.2531V16.8471H8.40342C8.40342 16.8471 9.61073 16.8636 9.65839 15.6079C9.70605 14.187 8.46697 14.2696 8.46697 14.2696L7.05314 14.2531Z" fill="#FFF200"/>
<path d="M0 0.423889V24.2821L10.3098 24.2656C10.7069 24.2986 12.6927 24.0838 14.4083 22.5473C16.5211 20.6637 16.8388 17.888 16.8388 16.401C16.8388 14.5505 16.1081 12.6174 14.8372 11.0477C14.9961 10.7669 15.7268 9.41203 15.7268 7.41283C15.7268 7.08238 15.7109 6.75194 15.6633 6.40497C15.2979 3.53008 13.8205 2.27439 13.1057 1.66306C12.2955 0.985648 10.9452 0.489978 9.64261 0.423889H0ZM9.64261 0.622157C10.8976 0.688246 12.2161 1.15087 12.9945 1.81176C13.6935 2.40657 15.1232 3.6127 15.4726 6.43801C15.8062 9.14767 14.6466 10.9816 14.6307 10.9982L14.5989 11.0643L14.6466 11.1138C15.9174 12.6504 16.6323 14.5835 16.6323 16.401C16.6323 17.8549 16.3305 20.5481 14.2653 22.3986C12.5973 23.8856 10.6275 24.0838 10.2939 24.0673C10.2939 24.0673 1.19143 24.0838 0.174742 24.0838C0.174742 23.8856 0.174742 0.820425 0.174742 0.622157C0.381256 0.622157 9.64261 0.622157 9.64261 0.622157Z" fill="black"/>
<path d="M6.95801 7.87547V9.61031H8.03823C8.03823 9.61031 8.38772 9.64336 8.62601 9.39552C8.78486 9.24682 8.88018 9.01551 8.88018 8.71811C8.88018 8.43723 8.81663 8.20592 8.68955 8.07374C8.51481 7.89199 8.26063 7.85895 8.03823 7.85895L6.95801 7.87547ZM8.03823 8.05722C8.22886 8.05722 8.41949 8.07374 8.56246 8.20592C8.65778 8.30505 8.70543 8.4868 8.70543 8.71811C8.70543 8.94942 8.64189 9.13117 8.51481 9.24682C8.32418 9.42857 8.05412 9.41204 8.05412 9.41204C8.05412 9.41204 7.30749 9.41204 7.14864 9.41204C7.14864 9.24682 7.14864 8.23896 7.14864 8.07374C7.30749 8.07374 8.03823 8.05722 8.03823 8.05722Z" fill="black"/>
<path d="M6.95801 16.9463H8.4036C8.41949 16.9463 9.70623 16.9463 9.75389 15.608C9.76977 15.1288 9.64269 14.7653 9.4044 14.5175C9.02314 14.1375 8.49892 14.1705 8.46715 14.1705L7.06921 14.154H6.97389V16.9463H6.95801ZM7.14864 14.3523C7.30749 14.3523 8.45126 14.3688 8.45126 14.3688C8.46715 14.3688 8.92783 14.3357 9.24554 14.6662C9.45206 14.881 9.54737 15.1949 9.54737 15.608C9.5156 16.748 8.43537 16.748 8.38772 16.748C8.38772 16.748 7.30749 16.748 7.13275 16.748C7.14864 16.5663 7.14864 14.534 7.14864 14.3523Z" fill="black"/>
<path d="M12.2637 3.29883L12.2799 3.31571C12.2961 3.33258 12.2961 3.33258 12.2961 3.33258L12.2637 3.29883Z" fill="black"/>
<path d="M12.9943 11.6105L12.6448 11.2965L12.9149 10.9C12.9308 10.8835 14.0428 9.54518 14.011 7.29814C13.9633 4.88588 12.1683 2.3084 9.53124 2.25883L1.79492 2.24231V22.5482H5.43274V6.27376L8.38747 6.22419C9.40416 6.33985 10.5638 6.88508 10.5003 8.70254C10.4685 10.1895 9.70598 11.1148 8.37159 11.1974C8.32393 11.1974 8.14919 11.1974 6.87834 11.1974V12.5853C7.59319 12.5853 8.67342 12.5853 8.6893 12.5853C9.70598 12.6018 11.3104 13.2297 11.3422 15.4436C11.374 17.7568 9.70598 18.6159 8.60987 18.5664H8.70519H8.6893H6.89422V22.5317C6.89422 22.5317 9.67421 22.5317 9.6901 22.5317H9.76953C9.34061 22.4987 11.2469 22.5152 12.343 21.8047C13.0737 21.3421 15.0436 19.6568 15.0753 16.6167C15.0595 16.6002 15.2024 13.5601 12.9943 11.6105Z" fill="black"/>
<path d="M113.964 24.1995L106.768 24.183V0.556091H113.948L113.964 24.1995Z" fill="#FFF200"/>
<path d="M106.672 24.2821H114.059L114.043 0.45697H106.672V24.2821ZM106.863 0.655238C107.054 0.655238 113.678 0.655238 113.853 0.655238C113.853 0.853506 113.869 23.8856 113.869 24.0839C113.678 24.0839 107.038 24.0839 106.863 24.0839C106.863 23.8856 106.863 0.853506 106.863 0.655238Z" fill="black"/>
<path d="M112.312 2.27441H108.436V22.5803H112.328L112.312 2.27441Z" fill="black"/>
<path d="M115.378 15.7401V23.9352C115.378 23.9352 116.839 24.5795 118.364 24.5795C119.889 24.5795 121.446 23.9682 122.447 23.1256C123.448 22.2664 124.846 20.4985 125.354 18.3011C125.862 16.1366 125.799 13.8731 124.48 11.5765C123.463 9.80858 122.622 8.86681 123.066 7.79286C123.066 7.79286 123.527 6.50412 125.274 7.41285C125.624 7.59459 125.862 7.8259 125.862 7.8259V0.638695C125.862 0.638695 124.973 0.0108465 123.114 0.10998C123.114 0.10998 120.541 0.0438911 118.332 2.30745C115.918 4.76927 115.409 8.45375 116.76 11.7747C117.189 12.8156 117.443 13.2122 117.824 13.8896C118.046 14.3027 118.618 15.5088 118.062 16.2688C117.602 16.8967 116.903 16.8967 116.378 16.5662C115.965 16.2853 115.711 16.054 115.378 15.7401Z" fill="#FFF200"/>
<path d="M123.13 0.0108529C123.114 0.0108529 120.493 -0.0221916 118.285 2.24137C115.886 4.68667 115.282 8.35462 116.696 11.8243C117.046 12.6835 117.284 13.113 117.57 13.5922L117.76 13.9392C117.951 14.2861 118.539 15.4757 117.999 16.2027C117.538 16.8306 116.871 16.748 116.442 16.4836C116.013 16.2192 115.775 15.9879 115.441 15.674L115.282 15.5253V24.0178L115.346 24.0508C115.362 24.0508 116.839 24.6952 118.38 24.6952C119.857 24.6952 121.446 24.1334 122.526 23.2082C123.559 22.3325 124.957 20.5316 125.465 18.3176C126.053 15.8062 125.767 13.5922 124.591 11.5269L124.019 10.5686C123.32 9.41205 122.844 8.65203 123.193 7.82591C123.193 7.80939 123.336 7.42937 123.765 7.26415C124.162 7.09893 124.671 7.18154 125.274 7.49546C125.608 7.66069 125.83 7.892 125.83 7.892L125.989 8.0407V0.605656L125.942 0.572612C125.894 0.523045 125.004 -0.088281 123.13 0.0108529ZM125.783 0.688268C125.783 0.787402 125.783 7.19806 125.783 7.57807C125.671 7.49546 125.528 7.37981 125.338 7.29719C124.687 6.95023 124.115 6.86761 123.67 7.04936C123.177 7.24763 123.003 7.71025 123.003 7.72677C122.621 8.6355 123.114 9.42857 123.845 10.6347L124.416 11.593C125.576 13.6087 125.846 15.7897 125.274 18.235C124.766 20.3994 123.4 22.1673 122.399 23.0099C121.351 23.9021 119.81 24.4474 118.364 24.4474C117.03 24.4474 115.727 23.9517 115.473 23.836C115.473 23.7039 115.473 16.3514 115.473 15.9384C115.727 16.1862 115.965 16.3845 116.331 16.6158C116.823 16.9297 117.586 17.0288 118.142 16.3019C118.745 15.4757 118.126 14.187 117.919 13.807L117.729 13.46C117.459 12.9809 117.22 12.5513 116.871 11.7087C115.489 8.32158 116.092 4.73624 118.428 2.3405C120.572 0.176076 123.098 0.209121 123.13 0.209121C124.718 0.126509 125.592 0.572612 125.783 0.688268Z" fill="black"/>
<path d="M123.511 13.2287C123.528 13.2456 123.528 13.2625 123.528 13.2625L123.511 13.2287Z" fill="black"/>
<path d="M123.082 1.66307C122.129 1.7622 120.858 2.19178 120.127 2.80311C116.744 5.6119 117.411 9.21377 118.173 10.866C118.364 11.4608 119.651 13.3278 119.937 15.1783C120.016 16.3514 119.54 17.4419 118.634 18.0202C118.094 18.3671 117.459 18.4332 116.903 18.1854V22.7125C117.363 22.9273 118.221 23.0925 119.015 22.9273C122.24 22.2994 123.575 18.8628 123.845 17.8549C124.766 14.5009 122.828 11.593 122.256 10.7173C121.382 9.34595 121.335 8.25547 121.589 7.29718C121.827 6.40497 122.574 5.85974 123.257 5.71104C123.606 5.64495 124.003 5.64495 124.353 5.71104V1.69611C124.099 1.64655 123.559 1.6135 123.082 1.66307Z" fill="black"/>
<path d="M79.222 17.7393L79.2378 24.183H72.3911L72.407 0.539585H80.4452C80.4452 0.539585 83.7812 0.341318 85.9098 2.65444C87.832 4.73625 89.1505 9.03206 87.3078 13.4435C86.7836 14.6992 84.8773 17.4915 81.4777 17.7228C80.3022 17.8219 79.222 17.7393 79.222 17.7393ZM79.222 8.0242V10.4695H80.2069C80.2069 10.4695 81.2712 10.5521 81.2871 9.23033C81.303 8.04072 80.2863 8.0242 80.0163 8.0242C79.8415 8.00767 79.222 8.0242 79.222 8.0242Z" fill="#FFF200"/>
<path d="M80.4291 0.456965H72.2957L72.2798 24.2821H79.3171C79.3171 24.2821 79.3012 18.0367 79.3012 17.8384C79.5872 17.855 80.5086 17.888 81.4617 17.8219C84.7977 17.5906 86.7834 14.8809 87.3712 13.4766C89.2139 9.06509 87.9272 4.73625 85.9573 2.58834C83.8445 0.27522 80.4609 0.456965 80.4291 0.456965ZM80.4291 0.655233C80.4609 0.655233 83.7651 0.49001 85.8302 2.73704C87.7683 4.83538 89.0233 9.08161 87.2123 13.4105C86.6404 14.7653 84.7024 17.4089 81.4617 17.6237C80.3179 17.7063 79.2377 17.6237 79.2377 17.6237H79.1424C79.1424 17.6237 79.1583 23.8856 79.1583 24.0839C78.9676 24.0839 72.6928 24.0839 72.5022 24.0839C72.5022 23.8856 72.5181 0.836978 72.5181 0.655233C72.6769 0.655233 80.4291 0.655233 80.4291 0.655233Z" fill="black"/>
<path d="M79.1265 7.92505V10.5686H80.2067C80.2226 10.5686 80.6674 10.6017 81.001 10.2712C81.2393 10.0399 81.3664 9.69294 81.3822 9.23031C81.3822 8.83378 81.2869 8.50333 81.0645 8.28854C80.8262 8.04071 80.4768 7.92505 80.0161 7.92505H79.1265ZM80.032 8.12332C80.445 8.12332 80.7468 8.22245 80.9533 8.43724C81.1281 8.61899 81.2234 8.89987 81.2075 9.23031C81.2075 9.62685 81.0963 9.94077 80.8898 10.1225C80.6038 10.3869 80.2385 10.3704 80.2226 10.3704C80.2226 10.3704 79.4759 10.3704 79.3171 10.3704C79.3171 10.1886 79.3171 8.28854 79.3171 8.12332C79.4601 8.12332 80.032 8.12332 80.032 8.12332Z" fill="black"/>
<path d="M80.7311 2.27444H74.0591V22.5804H77.6651V6.2398H80.2068C82.5897 6.2398 82.9868 8.27204 82.955 9.32947C82.9392 10.4365 82.4149 12.2539 80.604 12.2539C80.5563 12.2539 79.1266 12.2704 79.1266 12.2704V16.0375C79.1266 16.0375 81.3983 16.0706 82.129 15.9219C84.623 15.3766 86.6564 12.3696 86.5611 9.14772C86.4181 4.29016 83.7017 2.2414 80.7311 2.27444Z" fill="black"/>
<path d="M125.592 22.2169C126.212 22.2169 126.72 22.7456 126.72 23.4065C126.72 24.0839 126.228 24.5961 125.592 24.5961C124.973 24.5961 124.464 24.0674 124.464 23.4065C124.464 22.7456 124.973 22.2169 125.592 22.2169ZM125.592 22.3986C125.084 22.3986 124.671 22.8447 124.671 23.4065C124.671 23.9682 125.084 24.4143 125.592 24.4143C126.101 24.4143 126.514 23.9682 126.514 23.4065C126.514 22.8447 126.101 22.3986 125.592 22.3986ZM125.386 24.1004H125.179V22.7786C125.29 22.7621 125.386 22.7456 125.545 22.7456C125.735 22.7456 125.862 22.7951 125.942 22.8447C126.021 22.9108 126.053 22.9934 126.053 23.1256C126.053 23.3073 125.942 23.4065 125.799 23.456V23.4726C125.91 23.4891 125.989 23.6047 126.005 23.803C126.037 24.0013 126.069 24.0839 126.085 24.1334H125.878C125.846 24.0839 125.815 23.9682 125.799 23.803C125.767 23.6378 125.688 23.5717 125.529 23.5717H125.386V24.1004ZM125.386 23.3569H125.529C125.703 23.3569 125.846 23.2908 125.846 23.1256C125.846 23.0099 125.767 22.8943 125.529 22.8943C125.465 22.8943 125.417 22.8943 125.386 22.9108V23.3569Z" fill="black"/>
</svg>
