<svg width="216" height="62" viewBox="0 0 216 62" fill="none" xmlns="http://www.w3.org/2000/svg">
<g clip-path="url(#clip0_2_2)">
<path d="M23.603 32.9152V27.9614L17.4644 27.8509V19.6988C20.0303 19.8789 22.5983 20.0487 25.1683 20.2083V15.3465C20.9654 14.9577 16.7625 14.5485 12.5596 14.1188V47.6295C16.7707 47.1834 20.9859 46.7742 25.2051 46.4018V41.4234C22.6228 41.583 20.0426 41.7528 17.4644 41.9329V32.995L23.603 32.9152Z" fill="white"/>
<path d="M60.1584 26.396V23.6337C60.1584 19.9505 57.3224 17.3109 53.099 17.0347C48.4951 16.7339 45.4258 19.3551 45.4258 23.6214V38.0164C45.4258 42.5283 48.2618 44.996 53.0131 44.683C57.2856 44.4067 60.1584 41.6812 60.1584 37.8568V35.3216L55.6957 35.4014V37.685C55.7074 38.0263 55.6495 38.3664 55.5256 38.6847C55.4016 39.0029 55.2142 39.2926 54.9747 39.5361C54.7352 39.7796 54.4487 39.9718 54.1326 40.101C53.8164 40.2302 53.4773 40.2938 53.1358 40.2877C51.46 40.3553 50.4962 39.3854 50.4962 37.6174V23.9406C50.4962 22.2402 51.4416 21.3133 53.099 21.3808C53.4385 21.3716 53.7764 21.4314 54.0921 21.5565C54.4079 21.6817 54.695 21.8696 54.936 22.1089C55.177 22.3482 55.367 22.6339 55.4944 22.9488C55.6218 23.2636 55.684 23.601 55.6772 23.9406V26.2978L60.1584 26.396Z" fill="white"/>
<path d="M73.9028 37.6297C74.2629 39.4958 74.6292 41.3558 75.0016 43.2097C76.5608 43.1524 78.12 43.1033 79.6792 43.0624C77.9399 34.9635 76.1986 26.748 74.4552 18.4158C72.1962 18.3422 69.9311 18.2501 67.6721 18.158C65.855 26.5311 64.038 35.0638 62.221 43.756C63.8477 43.6762 65.4683 43.6026 67.095 43.535C67.4634 41.5952 67.8317 39.6657 68.2 37.7463L73.9028 37.6236M69.0533 33.7624C69.6794 30.3616 70.3096 26.9813 70.9439 23.6214H71.2386V23.7503C71.8443 27.1511 72.4581 30.5314 73.0802 33.8913L69.0103 33.9281L69.0533 33.7624Z" fill="white"/>
<path d="M96.9471 26.1689C96.9471 21.4422 94.7127 18.9315 90.4893 18.864C87.8129 18.8189 85.1385 18.7637 82.4661 18.6982V43.0133C84.1174 42.9703 85.7748 42.9335 87.4261 42.9028V34.0079H90.299C94.7127 34.0079 96.9471 31.356 96.9471 26.1812M87.4261 30.38V22.5164H89.5378C91.3119 22.5164 92.1037 23.6766 92.1037 26.1996C92.1037 28.9743 91.2505 30.3247 89.4948 30.3247L87.4261 30.38Z" fill="white"/>
<path d="M110.869 32.418V28.6489H104.731V22.7129C107.309 22.7129 109.887 22.7129 112.466 22.7129V18.9376C108.246 18.9745 104.027 18.9745 99.8077 18.9376V42.7493C104.043 42.7248 108.275 42.7248 112.502 42.7493V38.9741C109.912 38.9741 107.321 38.9638 104.731 38.9434V32.4119H110.869" fill="white"/>
<path d="M138.211 43.4V18.3115L133.251 18.4895V28.6366L128.119 28.6673V18.6491L123.159 18.7719V42.9703L128.119 43.0931V32.8048H133.251V43.222L138.211 43.4Z" fill="white"/>
<path d="M172.526 16.2796V32.6758H172.225C170.211 27.192 168.198 21.8862 166.185 16.7584C164.539 16.875 162.888 16.9917 161.237 17.096V44.6154L165.583 44.9162V27.2677H165.884C168.11 33.1199 170.34 39.1807 172.575 45.4503L176.872 45.8002V15.9236L172.526 16.2796Z" fill="white"/>
<path d="M196.037 14.1188C190.983 14.6426 185.918 15.1296 180.844 15.5798V20.3679L185.969 20.0487V46.6105L190.954 47.1016V19.7111L196.037 19.3489V14.1188Z" fill="white"/>
<path d="M38.3418 29.8459C37.5233 29.0725 36.7048 28.2888 35.8863 27.4949C34.585 26.1505 33.1485 24.2721 33.1485 22.6331C33.1485 20.9941 33.9711 19.9751 35.2909 20.0549C37.1325 20.1654 37.5806 21.8964 37.7832 23.8608L42.1109 24.0143C41.7917 17.6117 38.3602 15.9604 35.5303 15.7333C32.3137 15.4509 28.5568 17.1267 28.5568 22.8909C28.5568 25.8804 29.7109 28.2929 32.4242 31.1166C33.2836 32.0088 34.1389 32.8907 34.9901 33.7624C36.6844 35.4996 37.5438 36.936 37.5438 38.5259C37.5438 39.3915 37.3289 41.4172 35.3646 41.54C33.4002 41.6628 32.9459 39.7721 32.7556 37.8568L28.2192 38.041H28.1333C28.4463 43.4921 31.0675 46.3465 35.3277 45.9721C39.4958 45.5854 42.3994 42.3564 42.3994 38.0594C42.3994 35.1497 41.2208 32.8355 38.3418 29.8582" fill="white"/>
<path d="M152.367 17.6362V37.2307C152.367 38.9802 151.354 40.1588 149.727 40.0974C148.1 40.036 147.087 38.8022 147.087 37.0956V17.9125C145.436 17.9984 143.785 18.0721 142.133 18.1457V36.9053C142.133 41.2515 144.478 44.0445 149.727 44.3453C154.975 44.6461 157.314 41.939 157.314 37.2859V17.3477C155.663 17.4521 154.018 17.5442 152.367 17.6362Z" fill="white"/>
<path d="M204.858 0.429703H204.809C202.863 0.748911 192.292 2.43703 175.343 4.11287C151.968 6.40871 127.984 7.56891 104.068 7.56891H103.54C79.5994 7.56891 55.6588 6.40871 32.2646 4.11287C15.3465 2.45545 4.7697 0.755049 2.82376 0.435842H2.77465L0 0V62.2271L2.82376 61.7913C4.81267 61.4721 15.6166 59.7901 32.7127 58.1081C56.2297 55.8614 80.1519 54.6828 103.816 54.6766C127.481 54.6705 151.397 55.843 174.914 58.1265C192.016 59.7901 202.814 61.4721 204.809 61.8097L207.632 62.2455V0L204.858 0.429703ZM202.82 56.4752H202.574C191.911 55.0265 179.788 53.7313 167.523 52.7184C146.203 50.9628 124.767 50.0665 103.804 50.0604C82.8406 50.0543 61.4168 50.9505 40.0974 52.6939C27.8263 53.7067 15.7087 55.002 5.0398 56.4752H4.81267V5.75802H5.0398C15.5921 7.23129 27.6238 8.52653 39.8028 9.5394C61.0669 11.3012 82.5152 12.1913 103.552 12.1913H104.08C125.117 12.1913 146.559 11.3012 167.824 9.5394C180.021 8.52653 192.04 7.23129 202.587 5.78871H202.82V56.4752Z" fill="white"/>
<path d="M214.335 55.4348C214.86 55.7072 215.287 56.1355 215.559 56.6609C215.849 57.2304 216 57.8606 216 58.5C216 59.1394 215.849 59.7696 215.559 60.3391C215.283 60.8617 214.857 61.289 214.335 61.5652C213.766 61.8511 213.137 62 212.5 62C211.863 62 211.234 61.8511 210.665 61.5652C210.147 61.2842 209.722 60.8582 209.441 60.3391C209.151 59.7696 209 59.1394 209 58.5C209 57.8606 209.151 57.2304 209.441 56.6609C209.718 56.1392 210.144 55.7123 210.665 55.4348C211.234 55.1489 211.863 55 212.5 55C213.137 55 213.766 55.1489 214.335 55.4348ZM213.932 60.8418C214.334 60.6245 214.662 60.2914 214.874 59.8855C215.102 59.4425 215.215 58.9493 215.204 58.451C215.215 57.9487 215.101 57.4517 214.874 57.0042C214.658 56.6041 214.331 56.2759 213.932 56.0601C213.49 55.8426 213.004 55.7295 212.512 55.7295C212.02 55.7295 211.535 55.8426 211.093 56.0601C210.691 56.2757 210.359 56.6037 210.139 57.0042C209.911 57.4517 209.797 57.9487 209.808 58.451C209.797 58.9493 209.911 59.4425 210.139 59.8855C210.355 60.2923 210.687 60.6252 211.093 60.8418C211.535 61.0593 212.02 61.1724 212.512 61.1724C213.004 61.1724 213.49 61.0593 213.932 60.8418ZM213.932 58.5123C213.771 58.7149 213.547 58.8574 213.295 58.9169L214.25 60.3146H213.344L212.524 58.9904H211.949V60.3146H211.179V56.5382H212.781C213.145 56.5212 213.502 56.6391 213.785 56.8693C213.91 56.9758 214.009 57.1096 214.075 57.2605C214.141 57.4114 214.171 57.5753 214.164 57.7398C214.185 58.0173 214.102 58.2929 213.932 58.5123ZM211.949 58.4142H212.708C213.161 58.4142 213.381 58.218 213.381 57.8134C213.381 57.4088 213.161 57.2003 212.708 57.2003H211.949V58.4142Z" fill="white"/>
</g>
<defs>
<clipPath id="clip0_2_2">
<rect width="216" height="62" fill="white"/>
</clipPath>
</defs>
</svg>
