<?xml version="1.0" encoding="UTF-8" standalone="no"?>
<svg
   xmlns:dc="http://purl.org/dc/elements/1.1/"
   xmlns:cc="http://creativecommons.org/ns#"
   xmlns:rdf="http://www.w3.org/1999/02/22-rdf-syntax-ns#"
   xmlns:svg="http://www.w3.org/2000/svg"
   xmlns="http://www.w3.org/2000/svg"
   xmlns:sodipodi="http://sodipodi.sourceforge.net/DTD/sodipodi-0.dtd"
   xmlns:inkscape="http://www.inkscape.org/namespaces/inkscape"
   width="1803"
   height="350"
   viewBox="0 0 477.04374 92.60417"
   version="1.1"
   id="svg8"
   inkscape:version="1.0.1 (3bc2e813f5, 2020-09-07)"
   sodipodi:docname="logo.svg">
  <defs
     id="defs2" />
  <sodipodi:namedview
     id="base"
     pagecolor="#ffffff"
     bordercolor="#666666"
     borderopacity="1.0"
     inkscape:pageopacity="0.0"
     inkscape:pageshadow="2"
     inkscape:zoom="0.24748737"
     inkscape:cx="1104.2072"
     inkscape:cy="616.77258"
     inkscape:document-units="mm"
     inkscape:current-layer="layer1"
     inkscape:document-rotation="0"
     showgrid="false"
     units="px"
     inkscape:window-width="1278"
     inkscape:window-height="1368"
     inkscape:window-x="2713"
     inkscape:window-y="640"
     inkscape:window-maximized="0" />
  <metadata
     id="metadata5">
    <rdf:RDF>
      <cc:Work
         rdf:about="">
        <dc:format>image/svg+xml</dc:format>
        <dc:type
           rdf:resource="http://purl.org/dc/dcmitype/StillImage" />
        <dc:title></dc:title>
      </cc:Work>
    </rdf:RDF>
  </metadata>
  <g
     inkscape:label="Lag 1"
     inkscape:groupmode="layer"
     id="layer1">
    <g
       id="g903"
       transform="translate(0.00720963,0.04548074)"
       style="fill:#4b3f38;fill-opacity:1">
      <path
         style="fill:#4b3f38;fill-opacity:1;stroke-width:19.0895;stroke-linecap:round"
         d="m 510.57805,76.684535 c -1.53758,-1.397137 -2.44717,-3.561977 -3.00707,-7.156915 -0.36796,-2.362573 -0.38087,-3.080726 -0.10199,-5.674542 0.17561,-1.633306 0.41618,-3.340163 0.5346,-3.793014 0.11842,-0.452852 0.37907,-1.4484 0.57922,-2.212328 0.34663,-1.323025 0.76359,-2.440953 1.56835,-4.205045 0.19967,-0.437679 0.36303,-0.853855 0.36303,-0.924835 0,-0.39517 2.29613,-4.075375 3.43578,-5.506834 1.31725,-1.654517 3.84711,-4.010498 4.30649,-4.010498 0.13086,0 0.36811,-0.130173 0.52721,-0.289272 0.56125,-0.561254 2.9623,-1.223929 4.97368,-1.372707 1.11947,-0.08281 2.41989,-0.26794 2.88983,-0.411412 0.46993,-0.14347 1.49271,-0.409382 2.27284,-0.590917 1.90011,-0.442151 3.58289,-0.959561 5.71156,-1.756157 0.97227,-0.363845 2.1087,-0.754476 2.52538,-0.868065 0.41669,-0.113589 1.09855,-0.389967 1.51523,-0.61417 0.41669,-0.224203 0.89046,-0.408342 1.05282,-0.409198 0.16237,-7.57e-4 0.61694,-0.16173 1.01016,-0.3575 0.39322,-0.195771 1.33997,-0.611781 2.1039,-0.924468 5.31754,-2.176549 12.28216,-5.497286 18.81409,-8.970571 1.94455,-1.033991 3.87646,-2.050086 4.29315,-2.257989 0.41669,-0.207904 0.92808,-0.489371 1.13642,-0.625483 2.75309,-1.798605 15.18529,-8.683285 19.57171,-10.838386 4.39463,-2.159133 4.85691,-1.989541 3.26843,1.199068 -0.98302,1.973243 -3.25238,6.019534 -4.27451,7.621485 -3.09508,4.850813 -5.82999,8.617489 -7.70649,10.613795 -0.20834,0.221647 -1.08783,1.208775 -1.95441,2.193617 -6.12955,6.965991 -15.95461,15.647126 -27.23401,24.063156 -2.44186,1.82198 -10.73804,7.460583 -12.10156,8.224983 -0.27779,0.155733 -0.86335,0.499612 -1.30125,0.764173 -0.43789,0.264564 -1.74477,1.025941 -2.90418,1.691952 -1.15942,0.666009 -2.27849,1.313631 -2.48683,1.439155 -1.68665,1.016198 -10.20775,5.052331 -10.6665,5.052331 -0.13342,0 -0.60068,0.157152 -1.03836,0.349225 -1.81053,0.79454 -4.19547,1.418542 -5.42168,1.418542 -1.13384,0 -1.43304,-0.114261 -2.25504,-0.861176 z"
         id="path883"
         transform="scale(0.26458333)" />
      <g
         id="g894"
         style="fill:#4b3f38;fill-opacity:1">
        <path
           style="fill:#4b3f38;fill-opacity:1;stroke-width:53.9933;stroke-linecap:round"
           d="M 10.180293,348.75013 C 7.3659543,347.1897 0.77980062,340.26966 0.30373927,338.37288 0.05819469,337.39455 0.25730777,334.64957 0.74621277,332.27293 2.0747876,325.81451 13.174601,292.62857 24.087563,262.48757 c 20.609896,-56.92342 26.756781,-74.26922 27.57469,-77.8126 0.771948,-3.34426 0.726541,-3.76683 -0.501225,-4.6646 -1.540781,-1.12664 -7.075489,-1.21394 -21.695639,-0.34221 -11.85434,0.70682 -13.942151,0.36786 -14.253794,-2.31413 -0.569164,-4.89821 8.081542,-13.65131 18.684436,-18.90561 7.875474,-3.90272 11.72528,-5.09232 19.942963,-6.16245 4.888081,-0.63654 7.41772,-1.31255 8.47096,-2.26375 3.409948,-3.07956 8.44211,-15.38787 26.837196,-65.641895 12.62224,-34.483015 15.40243,-42.558228 14.84441,-43.116254 -0.43139,-0.431384 -21.474846,1.184664 -27.836131,2.137696 -6.278859,0.940684 -17.542193,4.115105 -25,7.045918 -3.142857,1.235097 -7.74015,2.848436 -10.216206,3.585196 -3.933086,1.170305 -4.55381,1.204341 -4.912589,0.269378 -0.926925,-2.415528 5.215257,-12.826401 12.826043,-21.739881 6.485478,-7.595558 12.732878,-11.975413 19.971327,-14.001265 4.033525,-1.128877 6.676503,-1.238474 58.402856,-2.421803 17.875,-0.408922 39.57143,-1.051105 48.21428,-1.427074 61.76884,-2.686981 77.97965,-3.642563 91.38316,-5.386786 9.59116,-1.2481151 16.96327,-1.3129827 18.11684,-0.1594111 1.43227,1.4322651 0.97794,3.6653481 -1.6507,8.1134481 -5.18553,8.774769 -13.06068,13.803638 -26.65598,17.021804 -12.85394,3.042676 -27.79627,4.088311 -67.97903,4.757039 -34.9355,0.581401 -41.31083,0.989969 -43.08179,2.760927 -0.82555,0.825547 -1.91076,3.457322 -6.21043,15.061068 -23.57863,63.632825 -32.85064,89.978025 -32.85064,93.340785 v 1.8303 l 34.10714,-0.37688 c 34.42555,-0.38039 48.32187,-1.10696 57.93355,-3.02906 2.89023,-0.57797 6.82773,-1.05086 8.75,-1.05086 3.19233,0 3.49503,0.14537 3.49503,1.67854 0,4.85979 -13.5233,18.24055 -21.49684,21.27025 -7.74099,2.94135 -19.59153,4.23721 -54.57459,5.96775 -24.68108,1.22093 -37.86291,2.21055 -39.02691,2.92995 -0.996164,0.61567 -2.324543,3.82365 -9.945507,24.01811 -13.356443,35.39264 -26.244229,71.25545 -32.504968,90.45147 -5.230453,16.03707 -7.453211,26.39259 -8.115679,37.80979 -0.495812,8.545 -0.715321,9.65873 -2.219157,11.2595 -4.096905,4.36095 -27.754688,8.53117 -32.734346,5.77016 z"
           id="path877"
           transform="scale(0.26458333)" />
        <path
           style="fill:#4b3f38;fill-opacity:1;stroke-width:38.179;stroke-linecap:round"
           d="m 230.75513,289.9656 c -4.94504,-0.91377 -8.33112,-2.95414 -9.89697,-5.96367 -2.20087,-4.22999 0.65496,-16.12249 10.40641,-43.33537 1.14475,-3.19461 3.05718,-8.53579 4.24983,-11.86929 4.02311,-11.24473 8.9195,-24.73224 9.90135,-27.27412 2.13628,-5.53053 10.52253,-29.37379 13.94533,-39.64849 5.35114,-16.06327 8.66298,-28.38766 9.70434,-36.11295 0.29957,-2.22234 0.87784,-6.5011 1.28506,-9.50836 0.90801,-6.70572 2.26126,-9.73512 5.03306,-11.26707 5.16628,-2.85536 27.26137,-3.02997 31.58075,-0.24956 1.59308,1.02547 2.5829,3.51255 2.58205,6.48782 -10e-4,3.67049 -1.66669,12.23685 -3.80868,19.58793 -0.72849,2.50013 -1.45124,5.08465 -1.6061,5.74339 -0.35665,1.51712 -8.01977,23.91535 -10.47675,30.6221 -1.01768,2.77792 -2.30817,6.30083 -2.86775,7.82868 -4.62136,12.6179 -8.0125,22.26895 -9.58345,27.27412 -0.82829,2.63903 -1.72204,5.32031 -1.98611,5.95841 -0.49934,1.20663 -0.65172,3.13296 -0.24782,3.13296 0.76858,0 8.64359,-9.35275 18.70806,-22.21861 5.17776,-6.61896 21.06501,-26.01056 21.93537,-26.77378 0.15839,-0.1389 1.98581,-2.18446 4.06093,-4.54569 5.59893,-6.37089 9.95602,-10.96646 18.94645,-19.98348 18.20785,-18.26172 34.45936,-31.33575 50.9246,-40.967879 3.00229,-1.75633 5.53343,-3.193328 5.62477,-3.193328 0.0913,0 2.29425,-0.990878 4.89536,-2.201952 6.90733,-3.216042 11.88878,-4.944597 18.6189,-6.460726 3.70862,-0.835461 14.24779,-0.850627 17.42513,-0.02508 3.55114,0.922678 6.78117,3.44595 8.58629,6.707563 1.35525,2.448743 1.51369,3.191081 1.50063,7.030953 -0.0175,5.158179 -1.18149,8.084189 -5.20528,13.085449 -8.14915,10.12873 -21.79745,22.77496 -24.57962,22.77496 -1.16394,0 -3.45319,-1.64072 -7.10642,-5.09322 -4.44377,-4.1996 -8.79867,-6.01846 -14.41004,-6.01846 -5.8025,0 -12.07771,2.14174 -17.30271,5.90543 -11.09352,7.99094 -36.83657,33.09295 -56.90154,55.48462 -16.99016,18.9603 -25.0601,29.12457 -38.47813,48.46404 -8.30518,11.97029 -20.10196,30.3781 -20.10196,31.36729 0,0.1219 -0.53238,1.06908 -1.18308,2.10484 -0.65069,1.03577 -2.74642,4.49698 -4.65716,7.69159 -5.91551,9.89022 -7.49902,11.90184 -10.54022,13.38975 -4.97351,2.43331 -12.53941,3.25837 -18.97488,2.06918 z"
           id="path879"
           transform="scale(0.26458333)" />
        <path
           style="fill:#4b3f38;fill-opacity:1;stroke-width:107.987;stroke-linecap:round"
           d="m 745.25755,331.88584 c -2.70093,-1.79923 -6.08798,-5.67199 -7.52676,-8.60612 -4.34212,-8.8549 -2.35034,-13.06085 23.77811,-50.21121 l 5.44785,-7.74594 -3.08822,-6.0534 c -6.0538,-11.86645 -7.38346,-17.77318 -8.41714,-37.39136 -0.56892,-10.79736 -1.43423,-20.0314 -1.92293,-20.5201 -0.95474,-0.95474 -1.14237,-0.85034 -28.53884,15.87973 l -18.21429,11.12283 v 13.09788 c 0,23.55752 -3.65517,35.33924 -15.68526,50.55846 -10.67635,13.5066 -33.00964,27.53968 -51.58128,32.41101 -5.03912,1.32175 -14.02096,2.41545 -19.95964,2.43043 -13.60663,0.0343 -20.93713,-3.09106 -30.57908,-13.03748 -6.98317,-7.2037 -7.08738,-7.44395 -6.85566,-15.80428 0.14651,-5.2857 1.32164,-10.61878 3.11398,-14.13204 4.81228,-9.43287 21.17956,-21.79616 56.54694,-42.71364 25.13376,-14.86496 23.1,-11.92949 18.11534,-26.14727 -5.39017,-15.37445 -19.5711,-51.16023 -20.73438,-52.32351 -1.45282,-1.45281 -4.96702,2.21835 -19.0587,19.90986 -18.96804,23.81358 -33.59406,40.30192 -55.23568,62.26882 -22.51458,22.85298 -32.1584,30.44844 -50.36691,39.66891 l -13.74838,6.96193 h -18.05707 c -16.05851,0 -18.81036,-0.37094 -24.86298,-3.3515 -18.25374,-8.98887 -19.88968,-32.61153 -5.95657,-86.01206 11.05639,-42.37515 15.04223,-61.8774 15.43684,-75.53072 0.34834,-12.05257 0.7186,-13.68443 3.52811,-15.54988 4.16715,-2.76688 20.86788,-3.85157 28.30734,-1.83852 11.53497,3.12125 11.24085,7.60871 -4.40201,67.16384 -11.07452,42.16267 -13.67923,54.57164 -13.67923,65.1685 0,6.96748 0.5513,8.57857 4.17582,12.20308 4.90598,4.90599 9.94779,5.34229 21.63632,1.87235 16.94668,-5.03092 30.31843,-13.89205 51.78329,-34.31549 27.88761,-26.53457 52.46629,-56.39593 77.53022,-94.19373 9.13299,-13.77303 18.25043,-26.99686 20.261,-29.386283 7.1496,-8.496821 26.90299,-21.229585 32.9352,-21.229585 6.41167,0 18.83022,14.526513 18.8076,22.000054 -0.0219,7.196814 -7.32804,17.846634 -21.91464,31.943424 l -13.68884,13.2292 8.43554,22.48509 c 9.43931,25.16069 15.23564,38.42545 17.36626,39.74223 2.9522,1.82456 10.94564,-1.06401 23.04725,-8.32856 21.48346,-12.89639 29.5003,-19.54329 58.18365,-48.24106 22.56424,-22.5756 29.91577,-29.02997 38.6166,-33.90397 13.01398,-7.29014 27.28938,-11.113 46.5827,-12.47457 l 14.47224,-1.02133 0.97373,-9.881718 c 0.72747,-7.382776 1.82459,-10.869227 4.33837,-13.786683 5.11723,-5.938964 16.33503,-5.336726 32.27816,1.732881 6.62017,2.935557 13.71243,6.0277 15.76058,6.871427 3.43302,1.414219 4.8279,0.641485 17.85715,-9.892465 34.25671,-27.69606 55.28975,-37.303903 67.61955,-30.888436 2.7032,1.406539 5.125,3.233213 5.3816,4.059277 0.2567,0.826063 -6.7777,5.847553 -15.632,11.158866 -19.31055,11.583618 -40.25094,26.30831 -48.99837,34.454304 -10.40165,9.686467 -8.75431,14.652557 8.74243,26.355097 16.31107,10.90951 26.74327,13.67266 51.62084,13.67266 25.0872,0 25.9943,-0.54442 27.4547,-16.47717 1.038,-11.32433 2.487,-13.29221 11.4718,-15.57989 13.2991,-3.38621 16.5386,-3.30406 21.1012,0.53512 2.3899,2.011 4.7455,5.25087 5.2347,7.19971 1.2546,4.99887 -2.2135,20.49091 -11.985,53.53654 -4.6485,15.72055 -8.9057,31.00704 -9.4605,33.96997 -0.9246,4.9375 -0.808,5.22084 1.3966,3.39464 1.3229,-1.09587 11.3165,-12.98872 22.208,-26.42856 31.4697,-38.83288 59.0114,-66.32283 81.5491,-81.395603 10.1889,-6.814118 23.4987,-10.898207 35.5076,-10.895398 16.8225,0.004 24.0154,6.42016 20.4686,18.258301 -1.7243,5.75521 -15.2409,22.93188 -21.9452,27.8876 l -3.8262,2.82823 -6.5378,-4.33047 c -14.1554,-9.37614 -26.0662,-7.16958 -42.3119,7.8386 -37.6409,34.77363 -65.5872,69.7621 -89.8694,112.51552 -19.9796,35.1778 -21.7086,37.70911 -26.9356,39.4342 -9.2464,3.05157 -24.811,-1.24319 -26.3901,-7.28184 -1.3206,-5.04998 3.8082,-26.12679 17.473,-71.80468 7.2294,-24.16592 12.9373,-44.9713 12.6842,-46.23419 -0.3918,-1.95536 -3.4284,-2.35314 -20.4601,-2.68014 -11.3722,-0.21834 -25.1349,-1.41403 -31.90324,-2.77173 -8.45523,-1.69608 -12.43036,-1.95031 -13.72283,-0.87766 -1.00074,0.83055 -2.95168,6.81178 -4.33543,13.29163 -3.46461,16.22432 -8.88598,33.10257 -13.70557,42.66929 -12.94301,25.69148 -47.31893,59.2529 -72.91365,71.18608 -16.38605,7.63975 -25.42579,9.33445 -49.8478,9.3451 l -22.14286,0.01 -13.33159,-5.54596 c -11.33543,-4.71557 -13.62487,-5.25032 -15.2903,-3.57143 -3.84748,3.87854 -16.20744,25.7786 -20.67756,36.63759 -6.1263,14.88231 -6.82281,15.49777 -12.93262,11.42771 z m -98.91579,-28.93199 c 16.12696,-7.29776 24.23287,-20.44358 25.77551,-41.80164 0.70279,-9.73012 0.5709,-10.35714 -2.1785,-10.35714 -7.97664,0 -35.54564,16.53187 -47.49338,28.4796 -11.298,11.298 -11.28389,19.41005 0.0443,25.4181 7.42036,3.93551 12.06002,3.59727 23.85215,-1.73892 z m 204.90653,-31.35914 c 42.4256,-8.99256 76.39671,-57.97309 77.38046,-111.56938 0.236,-12.85841 -0.16507,-16.46478 -2.1725,-19.53451 -3.21309,-4.91341 -7.15956,-6.04851 -12.1167,-3.48507 -8.8878,4.59606 -93.54883,95.24874 -104.75906,112.1731 -6.61353,9.98462 -5.52922,13.79549 5.51827,19.39422 9.87303,5.00352 22.01216,6.0182 36.14953,3.02164 z m -38.70984,-55.4425 c 10.48088,-11.19643 27.50715,-29.35714 37.83617,-40.35714 40.9781,-43.64013 47.24506,-51.04952 45.52808,-53.82764 -1.25957,-2.03802 -21.1427,-1.26836 -29.22285,1.13119 -10.90353,3.238 -24.91437,10.67232 -34.50713,18.30989 -17.49149,13.9264 -33.26895,38.62831 -37.53507,58.76663 -1.80993,8.54381 -3.07325,36.33421 -1.6517,36.33421 0.27298,0 9.07161,-9.16071 19.5525,-20.35714 z"
           id="path881"
           transform="scale(0.26458333)" />
        <path
           style="fill:#4b3f38;fill-opacity:1;stroke-width:38.179;stroke-linecap:round"
           d="m 1333.0955,58.399704 c 0,-0.237356 10.4717,-10.432665 16.4102,-15.977031 2.2197,-2.072373 4.1516,-3.881844 4.2931,-4.021046 1.4384,-1.414461 8.6226,-7.444528 13.9398,-11.70033 14.0889,-11.276628 29.5281,-20.3001856 40.7146,-23.7958245 8.2515,-2.57853391 9.9403,-2.88929746 15.6896,-2.88719779 4.2202,0.0015405 5.4641,0.18135066 6.7722,0.97893716 1.2524,0.76366753 1.5384,1.22136713 1.3098,2.09575193 -0.7152,2.7347628 -7.3032,7.9163902 -25.5378,20.0860032 -27.2272,18.171278 -47.5599,29.330275 -59.4493,32.627074 -6.2885,1.743725 -14.1422,3.184077 -14.1422,2.593663 z"
           id="path885"
           transform="scale(0.26458333)" />
        <path
           style="fill:#4b3f38;fill-opacity:1;stroke-width:53.9933;stroke-linecap:round"
           d="m 1477.3898,295.96844 c -4.6866,-0.99472 -9.4702,-3.37044 -10.7648,-5.34616 -1.0016,-1.52863 -1.128,-2.80134 -0.7227,-7.2745 0.5941,-6.55605 4.8197,-27.21177 8.5991,-42.03438 3.9468,-15.47917 17.2452,-70.09748 18.6087,-76.42857 3.707,-17.21204 6.0166,-32.57647 6.7852,-45.13758 0.4281,-6.99576 0.9182,-13.39764 1.0892,-14.2264 0.268,-1.29971 1.7848,-1.86795 11.0352,-4.13407 15.9973,-3.918952 21.6931,-3.421948 23.9978,2.09397 1.6966,4.06044 1.2783,14.48458 -1.0773,26.84919 -2.1476,11.27272 -3.0728,15.326 -9.6807,42.41203 -7.3056,29.94586 -9.3081,39.88355 -7.9456,39.43101 0.8566,-0.2845 9.8361,-12.68695 20.0759,-27.72864 17.9556,-26.37571 39.2842,-52.54439 59.6744,-73.21605 20.6316,-20.916379 29.3351,-26.404038 46.371,-29.237597 6.3028,-1.048335 8.3118,-1.112888 12.8204,-0.41195 11.3823,1.769569 18.3517,7.053242 20.3768,15.448131 1.3775,5.710536 -0.076,28.755826 -3.5367,56.072236 -2.2127,17.46577 -4.6902,37.89524 -5.6736,46.78572 -0.565,5.10714 -1.4126,12.5 -1.8837,16.42857 -0.471,3.92857 -0.89,12.44643 -0.9311,18.92857 -0.08,12.59134 0.2912,14.27576 3.8536,17.49969 2.3545,2.13082 11.5439,2.43998 15.8067,0.5318 13.2087,-5.91268 45.9367,-41.68691 83.1222,-90.85887 23.1634,-30.62986 26.3015,-33.72998 31.8269,-31.44129 2.3263,0.96358 3.5303,2.62676 3.5303,4.87667 0,6.02439 -32.3868,52.84252 -63.4294,91.69307 -25.9452,32.47111 -36.9714,42.85431 -57.6421,54.28056 -13.8621,7.66265 -22.5311,9.97936 -31.6111,8.44781 -9.152,-1.54368 -16.0012,-7.22041 -18.3872,-15.23953 -3.7562,-12.62444 -3.008,-47.12243 1.8311,-84.43277 4.5195,-34.84591 5.7695,-47.61353 5.5366,-56.55535 -0.2747,-10.54693 -1.1518,-12.32344 -6.6157,-13.39918 -4.3634,-0.85909 -12.1119,0.41847 -16.6756,2.74947 -13.9872,7.14411 -51.827,52.88223 -86.3287,104.34792 -11.6802,17.42321 -20.6981,32.5456 -28.3254,47.5 -6.6431,13.02455 -9.9392,17.87777 -13.3345,19.63351 -2.6912,1.39167 -6.8859,1.83356 -10.3752,1.09296 z"
           id="path887"
           transform="scale(0.26458333)" />
      </g>
    </g>
  </g>
</svg>
