<svg id="Layer_1" xmlns="http://www.w3.org/2000/svg" xmlns:xlink="http://www.w3.org/1999/xlink" viewBox="0 0 522 243.5"><style>.st0{fill:#103558;} .st1{clip-path:url(#SVGID_2_);fill:#2A2929;} .st2{clip-path:url(#SVGID_4_);fill:#2A2929;} .st3{clip-path:url(#SVGID_6_);fill:#444344;} .st4{clip-path:url(#SVGID_8_);fill:#444344;} .st5{clip-path:url(#SVGID_10_);fill:#444344;} .st6{clip-path:url(#SVGID_12_);fill:#2A2929;} .st7{clip-path:url(#SVGID_14_);fill:#77797C;} .st8{clip-path:url(#SVGID_16_);fill:#595A5C;} .st9{clip-path:url(#SVGID_18_);fill:#A7D2F0;} .st10{clip-path:url(#SVGID_20_);fill:#1DB0E6;} .st11{clip-path:url(#SVGID_22_);fill:#035E81;}</style><path class="st0" d="M-1 240.4L418-1.2-.4-.2-1 240.4z"/><defs><path id="SVGID_1_" d="M118.6 30.6H509V233H118.7z"/></defs><clipPath id="SVGID_2_"><use xlink:href="#SVGID_1_" overflow="visible"/></clipPath><path class="st1" d="M310 117.6h-8.4c-.7 0-1 .4-1 1V156c0 .6 0 1-.6 1h-9.2c-.5 0-.8-.3-.8-1v-37.4c0-.5-.2-1-1-1h-8.4c-.5 0-.8 0-.8-.6v-8c0-.6.3-1 .8-1H310c.5 0 .8.3.8 1v8c0 .5-.3.7-.7.7m44 39h-10c-.2 0-.5 0-.6-.4l-7-19c0-.2-.3-.4-.6-.4h-6c-.7 0-1 0-1 .7V156c0 .6-.3 1-.8 1h-9.3c-.5 0-.8-.3-.8-1v-47c0-.6 0-1 .6-1H338c9.4 0 15.5 5.7 15.5 15v.7c0 4.3-2.8 8.5-6 10.6-.4.3-.4.7-.3 1.2l7.4 20.4c.3.5.2 1-.5 1m-11-34.7c0-2.6-2-4.5-5-4.5H330c-.6 0-1 .4-1 1v8.3c0 .6.3 1 1 1h8.3c2.8 0 5-2 5-4.4v-1.2zm53.4 34.5h-9.8c-.5 0-.6-.2-.8-.5l-2.2-7c-.2-.4-.3-.5-1-.5h-10c-.6 0-.8 0-1 .5l-2.2 7c-.2.4-.3.5-.7.5H359c-.7 0-1-.4-.8-1l15.2-47.2c.2-.4.3-.5.8-.5h7c.3 0 .5.3.7.6l15 47.2c.3.6 0 1-.6 1m-17-23.8c-1-3-1.4-6.3-1.6-8.3h-.4c0 2-.8 5.5-1.5 8.4l-1.6 6.4c0 .5.2 1 1 1h4.6c.8 0 1-.6 1-1l-1.7-6.3zm47.6-15.4h-8.4c-.7 0-1 .3-1 1V156c0 .5 0 .8-.6.8h-9.2c-.5 0-.8-.2-.8-.8v-37.4c0-.6-.2-1-.8-1h-8.5c-.5 0-.8-.2-.8-.7v-8c0-.7 0-1 .6-1H427c.5 0 .8.2.8 1v8c-.2.5-.4.6-1 .6"/><g><defs><path id="SVGID_3_" d="M118.6 55H509v153.3H118.7z"/></defs><clipPath id="SVGID_4_"><use xlink:href="#SVGID_3_" overflow="visible"/></clipPath><path class="st2" d="M465.4 156.6H436c-.6 0-1 0-1-.7v-47.4c0-.4.4-.7 1-.7h29.4c.5 0 .8 0 .8.7v8.2c0 .4-.2.6-.8.6h-18.6c-.6 0-1 .2-1 .7v8c0 .5.3.8 1 .8H462c.5 0 .8.3.8 1v8c0 .5-.3 1-.8 1h-15.3c-.6 0-.8 0-.8.6v8.7c0 .5 0 .8.6.8h18.6c.5 0 .8.3.8 1v8c.2.5 0 .7-.6.6m38.8-2.3c-2.5 2-5.7 3.3-10 3.3h-4.6c-9.6 0-15.5-5.7-15.5-14v-22.4c0-8.4 6-14 15.7-14h4.5c5.2 0 8.8 1.4 11.4 4.2 1.4 1.5 2.5 3.2 3.6 5.2.2.5.2 1-.3 1.3l-8 3.7c-.6.3-1 0-1.3-.4-1.5-3-3.4-4.5-5.6-4.5H490c-2.8 0-5 2-5 4.6v22.2c0 2.4 2.2 4.4 5 4.4h4.2c2 0 4-1.5 5.5-4.6.2-.5.7-.7 1.2-.5l8 4c.5 0 .5.5.3 1-1.4 2.6-3 4.7-4.8 6.3"/><defs><path id="SVGID_5_" d="M118.6 55H509v153.3H118.7z"/></defs><clipPath id="SVGID_6_"><use xlink:href="#SVGID_5_" overflow="visible"/></clipPath><path class="st3" d="M185.4 55c-.6 0-1.3 0-1.7.5L120.3 92c-1 .5-1.7 2-1.7 3v73.6c0 .4.2 1 .5 1.6l66.5-38.2V55z"/><defs><path id="SVGID_7_" d="M118.6 55H509v153.3H118.7z"/></defs><clipPath id="SVGID_8_"><use xlink:href="#SVGID_7_" overflow="visible"/></clipPath><path class="st4" d="M250.7 92l-63.5-36.4c-.5-.4-1-.5-1.7-.5v77l66.5 38c.3-.3.5-1 .5-1.5V95c0-1-1-2.5-1.8-3"/><g><defs><path id="SVGID_9_" d="M118.6 55H509v153.3H118.7z"/></defs><clipPath id="SVGID_10_"><use xlink:href="#SVGID_9_" overflow="visible"/></clipPath><path class="st5" d="M119 170.2c.4.5.8 1 1.3 1.3l63.5 36.4c1 .4 2.5.4 3.5 0l63.4-36.6c.5-.4 1-.8 1.2-1.4l-66.7-38.2L119 170v.2z"/></g><g><defs><path id="SVGID_11_" d="M118.6 55H509v153.3H118.7z"/></defs><clipPath id="SVGID_12_"><use xlink:href="#SVGID_11_" overflow="visible"/></clipPath><path class="st6" d="M185.4 55c-.6 0-1.3 0-1.7.5L120.3 92c-1 .5-1.7 2-1.7 3v73.6c0 .4.2 1 .5 1.6l66.5-38.2V55z"/></g><g><defs><path id="SVGID_13_" d="M118.6 55H509v153.3H118.7z"/></defs><clipPath id="SVGID_14_"><use xlink:href="#SVGID_13_" overflow="visible"/></clipPath><path class="st7" d="M250.7 92l-63.5-36.4c-.5-.4-1-.5-1.7-.5v77l66.5 38c.3-.3.5-1 .5-1.5V95c0-1-1-2.5-1.8-3"/></g><g><defs><path id="SVGID_15_" d="M118.6 55H509v153.3H118.7z"/></defs><clipPath id="SVGID_16_"><use xlink:href="#SVGID_15_" overflow="visible"/></clipPath><path class="st8" d="M119 170.2c.4.5.8 1 1.3 1.3l63.5 36.4c1 .4 2.5.4 3.5 0l63.4-36.6c.5-.4 1-.8 1.2-1.4l-66.7-38.2L119 170v.2z"/></g></g><g><defs><path id="SVGID_17_" d="M118.6 30.6H509V233H118.7z"/></defs><clipPath id="SVGID_18_"><use xlink:href="#SVGID_17_" overflow="visible"/></clipPath><path class="st9" d="M223 97.8l-1-.2c-.5 0-1 0-1.2.3L187 118.5c-.4.2-1 .3-1.5.3-.6 0-1 0-1.5-.5l-33.8-21-1-.2c-.5 0-.8 0-1 .2l-8.6 5c-.3 0-.5.3-.7.6l46.4 28 46.7-28c0-.3-.3-.6-.6-.7l-8.6-4.6h.2z"/><g><defs><path id="SVGID_19_" d="M118.6 30.6H509V233H118.7z"/></defs><clipPath id="SVGID_20_"><use xlink:href="#SVGID_19_" overflow="visible"/></clipPath><path class="st10" d="M185.5 131.3l-46.7-28c-.2.3-.4.7-.4 1v9.4c0 .7.5 1.6 1 2l34.6 20.7c1 .5 1.5 1.7 1.5 2.7v39c0 .5.5 1.4 1 1.7l8 4.5c.2.2.5.2 1 .2v-53z"/></g><g><defs><path id="SVGID_21_" d="M118.6 30.6H509V233H118.7z"/></defs><clipPath id="SVGID_22_"><use xlink:href="#SVGID_21_" overflow="visible"/></clipPath><path class="st11" d="M185.5 131.3v53h1l7.7-4.4c.6-.4 1-1.3 1-2v-38.4c0-1 .8-2.3 1.6-2.8l34.7-21.2c.6-.3 1-1.2 1-2v-9.3c0-.3-.2-.7-.4-1l-46.4 28z"/></g></g></svg>
